<?xml version="1.0" encoding="UTF-8" standalone="no"?>
<svg
   width="51.250294"
   height="51.250294"
   viewBox="0 0 51.250289 51.250295"
   class="feather feather-heart"
   version="1.1"
   id="svg4"
   sodipodi:docname="clover-half.svg"
   style="fill:none;stroke:currentColor;stroke-width:2;stroke-linecap:round;stroke-linejoin:round"
   inkscape:version="1.2.2 (b0a8486541, 2022-12-01)"
   xmlns:inkscape="http://www.inkscape.org/namespaces/inkscape"
   xmlns:sodipodi="http://sodipodi.sourceforge.net/DTD/sodipodi-0.dtd"
   xmlns="http://www.w3.org/2000/svg"
   xmlns:svg="http://www.w3.org/2000/svg"
   xmlns:rdf="http://www.w3.org/1999/02/22-rdf-syntax-ns#"
   xmlns:cc="http://creativecommons.org/ns#"
   xmlns:dc="http://purl.org/dc/elements/1.1/">
  <metadata
     id="metadata10">
    <rdf:RDF>
      <cc:Work
         rdf:about="">
        <dc:format>image/svg+xml</dc:format>
        <dc:type
           rdf:resource="http://purl.org/dc/dcmitype/StillImage" />
      </cc:Work>
    </rdf:RDF>
  </metadata>
  <defs
     id="defs8" />
  <sodipodi:namedview
     pagecolor="#ffffff"
     bordercolor="#666666"
     borderopacity="1"
     objecttolerance="10"
     gridtolerance="10"
     guidetolerance="10"
     inkscape:pageopacity="0"
     inkscape:pageshadow="2"
     inkscape:window-width="1676"
     inkscape:window-height="1017"
     id="namedview6"
     showgrid="false"
     inkscape:zoom="1.8737492"
     inkscape:cx="17.078059"
     inkscape:cy="72.048063"
     inkscape:window-x="0"
     inkscape:window-y="0"
     inkscape:window-maximized="1"
     inkscape:current-layer="svg4"
     fit-margin-top="0"
     fit-margin-left="0"
     fit-margin-right="0"
     fit-margin-bottom="0"
     inkscape:showpageshadow="0"
     inkscape:pagecheckerboard="0"
     inkscape:deskcolor="#d1d1d1" />
  <g
     id="g4584"
     transform="matrix(1.0825318,-0.625,0.625,1.0825318,-29.997506,16.248597)"
     style="fill:#97e65e;fill-opacity:1;stroke:#1abd94;stroke-width:3;stroke-miterlimit:4;stroke-dasharray:none;stroke-opacity:1"
     inkscape:export-xdpi="96"
     inkscape:export-ydpi="96">
    <path
       inkscape:connector-curvature="0"
       id="path2"
       d="m 43.625884,12.125324 a 5.5,5.5 0 0 0 -7.78,0 l -1.06,1.06 -1.06,-1.06 a 5.5012908,5.5012908 0 0 0 -7.78,7.78 l 1.06,1.06 7.78,7.78 7.78,-7.78 1.06,-1.06 a 5.5,5.5 0 0 0 0,-7.78 z"
       style="fill:#97e65e;fill-opacity:1;stroke:#1abd94;stroke-width:3;stroke-miterlimit:4;stroke-dasharray:none;stroke-opacity:1" />
    <path
       inkscape:connector-curvature="0"
       id="path2-1"
       d="m 51.405884,37.585323 a 5.5,5.5 0 0 0 0,-7.780001 l -1.06,-1.06 1.06,-1.059999 a 5.5012911,5.5012911 0 0 0 -7.780001,-7.78 l -1.06,1.060001 -7.779999,7.78 7.780001,7.779998 1.059998,1.060001 a 5.5,5.5 0 0 0 7.780001,0 z"
       style="fill:#97e65e;fill-opacity:1;stroke:#1abd94;stroke-width:3;stroke-linecap:round;stroke-linejoin:round;stroke-miterlimit:4;stroke-dasharray:none;stroke-opacity:1" />
    <path
       inkscape:connector-curvature="0"
       id="path2-1-8"
       d="m 18.165883,19.905325 a 5.5,5.5 0 0 0 0,7.780001 l 1.06,1.06 -1.06,1.059999 a 5.5012915,5.5012915 0 0 0 7.780002,7.78 l 1.06,-1.060001 7.779999,-7.78 -7.780001,-7.779998 -1.059998,-1.060001 a 5.5,5.5 0 0 0 -7.780002,0 z"
       style="fill:#97e65e;fill-opacity:1;stroke:#1abd94;stroke-width:3;stroke-linecap:round;stroke-linejoin:round;stroke-miterlimit:4;stroke-dasharray:none;stroke-opacity:1" />
    <path
       inkscape:connector-curvature="0"
       id="path2-1-8-9"
       d="m 25.945885,45.365326 a 5.5,5.5 0 0 0 7.780001,0 l 1.06,-1.06 1.059999,1.06 a 5.5012918,5.5012918 0 0 0 7.78,-7.780003 l -1.060001,-1.06 -7.78,-7.779999 -7.779998,7.780001 -1.060001,1.059998 a 5.5,5.5 0 0 0 0,7.780003 z"
       style="fill:#97e65e;fill-opacity:1;stroke:#1abd94;stroke-width:3;stroke-linecap:round;stroke-linejoin:round;stroke-miterlimit:4;stroke-dasharray:none;stroke-opacity:1" />
  </g>
</svg>
